<svg width="29" height="22" viewBox="0 0 29 22" fill="none" xmlns="http://www.w3.org/2000/svg">
<path d="M24.253 5.88602C22.9379 2.38813 19.5356 0 15.7509 0C12.7196 0 9.90563 1.51018 8.22559 3.99017C7.82165 3.91815 7.41195 3.88224 7.00034 3.88224C3.14007 3.88203 0 7.01518 0 10.8664C0 14.7172 3.13996 17.8494 6.99979 17.8494H13.4256V22H15.5737L15.5739 17.8494H22.9318C26.2776 17.8494 29 15.1338 29 11.7959C29 8.91707 27.0044 6.48972 24.2541 5.88594L24.253 5.88602ZM22.9311 15.7071H15.5732V10.4815L17.7519 12.8555L19.3361 11.4082L14.5628 6.2079L9.67128 11.3974L11.2364 12.8655L13.4251 10.5433V15.707L6.9993 15.7072C4.32378 15.7072 2.14758 13.5356 2.14758 10.8669C2.14758 8.19719 4.324 6.02542 6.99909 6.02542C7.4801 6.02542 7.9575 6.09701 8.41829 6.23766L9.25236 6.49219L9.67313 5.72986C10.8956 3.51774 13.224 2.14337 15.75 2.14337C18.8167 2.14337 21.5539 4.19701 22.407 7.13806L22.6088 7.83343L23.3304 7.90609C25.3373 8.10877 26.8505 9.78127 26.8505 11.7971C26.8505 13.9531 25.092 15.7072 22.9308 15.7072L22.9311 15.7071Z" fill="#132743"/>
</svg>
