<svg width="42" height="42" viewBox="0 0 42 42" fill="none" xmlns="http://www.w3.org/2000/svg">
<rect width="41.5281" height="41.5281" rx="10" transform="matrix(-1 0 0 1 41.5273 0)" fill="#132743"/>
<path d="M15.2316 10.2893C15.2316 9.77679 14.8161 9.36133 14.3036 9.36133C13.7911 9.36133 13.3757 9.77679 13.3757 10.2893V12.5367C11.5283 12.7979 10.0689 14.259 9.82184 16.1229L9.71475 16.9307C9.69659 17.0677 9.67923 17.2048 9.66266 17.3419C9.61872 17.7056 9.90528 18.0223 10.2716 18.0223H30.7083C31.0747 18.0223 31.3612 17.7056 31.3173 17.3419C31.3007 17.2048 31.2834 17.0677 31.2652 16.9307L31.1581 16.1229C30.9111 14.2591 29.4516 12.7979 27.6044 12.5367V10.2893C27.6044 9.77679 27.1889 9.36133 26.6764 9.36133C26.1639 9.36133 25.7485 9.77679 25.7485 10.2893V12.3526C22.2498 12.041 18.7302 12.041 15.2316 12.3526V10.2893Z" fill="#F8F8F8"/>
<path d="M31.5576 20.4674C31.5467 20.1376 31.2743 19.8789 30.9445 19.8789H10.0367C9.70688 19.8789 9.43448 20.1376 9.42364 20.4674C9.35016 22.7039 9.48602 24.9451 9.83088 27.1614C10.092 28.8392 11.455 30.1279 13.1448 30.2944L14.6209 30.4401C18.5246 30.825 22.4567 30.825 26.3603 30.4401L27.8364 30.2944C29.5262 30.1279 30.8892 28.8392 31.1503 27.1614C31.4952 24.9451 31.6311 22.7039 31.5576 20.4674Z" fill="#F8F8F8"/>
</svg>
