<svg width="42" height="42" viewBox="0 0 42 42" fill="none" xmlns="http://www.w3.org/2000/svg">
<rect width="41.5281" height="41.5281" rx="10" transform="matrix(-1 0 0 1 41.5273 0)" fill="#132743"/>
<path d="M17.5402 10.89C15.9864 10.7164 14.3807 10.7164 12.8269 10.89C11.8273 11.0017 11.019 11.7889 10.9011 12.7968C10.7153 14.3858 10.7153 15.9911 10.9011 17.5801C11.019 18.588 11.8273 19.3751 12.8269 19.4869C14.3807 19.6606 15.9864 19.6606 17.5402 19.4869C18.5398 19.3751 19.3481 18.588 19.4659 17.5801C19.6518 15.9911 19.6518 14.3858 19.4659 12.7968C19.3481 11.7889 18.5398 11.0017 17.5402 10.89Z" fill="#F8F8F8"/>
<path d="M17.5402 22.2865C15.9864 22.1128 14.3807 22.1128 12.8269 22.2865C11.8273 22.3983 11.019 23.1854 10.9011 24.1932C10.7153 25.7824 10.7153 27.3876 10.9011 28.9767C11.019 29.9846 11.8273 30.7717 12.8269 30.8834C14.3807 31.0571 15.9864 31.0571 17.5402 30.8834C18.5398 30.7717 19.3481 29.9846 19.4659 28.9767C19.6518 27.3876 19.6518 25.7824 19.4659 24.1932C19.3481 23.1854 18.5398 22.3983 17.5402 22.2865Z" fill="#F8F8F8"/>
<path d="M28.9366 10.89C27.3828 10.7164 25.7772 10.7164 24.2234 10.89C23.2237 11.0017 22.4154 11.7889 22.2976 12.7968C22.1117 14.3858 22.1117 15.9911 22.2976 17.5801C22.4154 18.588 23.2237 19.3751 24.2234 19.4869C25.7772 19.6606 27.3828 19.6606 28.9366 19.4869C29.9363 19.3751 30.7446 18.588 30.8625 17.5801C31.0484 15.9911 31.0484 14.3858 30.8625 12.7968C30.7446 11.7889 29.9363 11.0017 28.9366 10.89Z" fill="#F8F8F8"/>
<path d="M28.9366 22.2865C27.3828 22.1128 25.7772 22.1128 24.2234 22.2865C23.2237 22.3983 22.4154 23.1854 22.2976 24.1932C22.1117 25.7824 22.1117 27.3876 22.2976 28.9767C22.4154 29.9846 23.2237 30.7717 24.2234 30.8834C25.7772 31.0571 27.3828 31.0571 28.9366 30.8834C29.9363 30.7717 30.7446 29.9846 30.8625 28.9767C31.0484 27.3876 31.0484 25.7824 30.8625 24.1932C30.7446 23.1854 29.9363 22.3983 28.9366 22.2865Z" fill="#F8F8F8"/>
</svg>
