<svg width="40" height="39" viewBox="0 0 40 39" fill="none" xmlns="http://www.w3.org/2000/svg">
<circle cx="20.3379" cy="19.5" r="19.5" fill="#3877A1"/>
<path d="M29.1731 10.782C27.4923 9.10248 25.351 7.95892 23.02 7.49594C20.689 7.03295 18.2731 7.27134 16.0776 8.18095C13.8822 9.09055 12.0058 10.6305 10.6859 12.6061C9.36594 14.5818 8.66166 16.9043 8.66211 19.28C8.66211 22.4664 9.9279 25.5224 12.1812 27.776C14.4345 30.0297 17.4908 31.2966 20.6783 31.2982C22.2556 31.2989 23.8178 30.9907 25.2766 30.391C26.7308 29.7773 28.0536 28.8903 29.1731 27.778C30.2896 26.6621 31.1752 25.3373 31.7795 23.8792C32.3837 22.4211 32.6947 20.8583 32.6947 19.28C32.6947 17.7018 32.3837 16.139 31.7795 14.6809C31.1752 13.2227 30.2896 11.8979 29.1731 10.782ZM28.326 26.9192C26.5957 28.6564 24.3252 29.7528 21.8884 30.0281V22.0925H24.1633C24.4843 22.0925 24.7921 21.9651 25.019 21.7382C25.2459 21.5114 25.3734 21.2037 25.3734 20.8829C25.3734 20.562 25.2459 20.2543 25.019 20.0275C24.7921 19.8006 24.4843 19.6732 24.1633 19.6732H21.8884V16.3586C21.8884 16.0378 22.0159 15.7301 22.2428 15.5033C22.4697 15.2764 22.7775 15.149 23.0985 15.149H24.5506C24.8715 15.149 25.1793 15.0215 25.4062 14.7947C25.6332 14.5678 25.7607 14.2601 25.7607 13.9393C25.7607 13.6185 25.6332 13.3108 25.4062 13.0839C25.1793 12.857 24.8715 12.7296 24.5506 12.7296H22.4934C21.6911 12.7296 20.9216 13.0482 20.3543 13.6154C19.7869 14.1825 19.4682 14.9517 19.4682 15.7538V19.6732H17.2053C16.8844 19.6732 16.5766 19.8006 16.3497 20.0275C16.1227 20.2543 15.9952 20.562 15.9952 20.8829C15.9952 21.2037 16.1227 21.5114 16.3497 21.7382C16.5766 21.9651 16.8844 22.0925 17.2053 22.0925H19.4682V30.0281C17.2209 29.7718 15.111 28.8161 13.4365 27.2962C11.7619 25.7762 10.6073 23.7688 10.1359 21.5574C9.66441 19.3459 9.89986 17.0423 10.809 14.9719C11.7181 12.9015 13.2549 11.169 15.2023 10.019C17.1498 8.86897 19.4094 8.35966 21.6621 8.56299C23.9148 8.76631 26.0466 9.672 27.7565 11.1521C29.4664 12.6322 30.668 14.6119 31.1914 16.8116C31.7148 19.0114 31.5337 21.3199 30.6736 23.4111C30.1258 24.7214 29.3285 25.9129 28.326 26.9192Z" fill="#F8F8F8"/>
</svg>
