<svg width="40" height="39" viewBox="0 0 40 39" fill="none" xmlns="http://www.w3.org/2000/svg">
<circle cx="20.3594" cy="19.5" r="19.5" fill="#3877A1"/>
<path d="M26.8189 28.5023H13.7244C13.0501 28.5023 12.4033 28.2344 11.9264 27.7575C11.4495 27.2807 11.1816 26.6339 11.1816 25.9595V12.8651C11.1816 12.1907 11.4495 11.5439 11.9264 11.067C12.4033 10.5902 13.0501 10.3223 13.7244 10.3223H26.8189C27.4933 10.3223 28.14 10.5902 28.6169 11.067C29.0938 11.5439 29.3617 12.1907 29.3617 12.8651V25.9595C29.3617 26.6339 29.0938 27.2807 28.6169 27.7575C28.14 28.2344 27.4933 28.5023 26.8189 28.5023ZM13.7244 11.3394C13.3198 11.3394 12.9317 11.5001 12.6456 11.7863C12.3595 12.0724 12.1988 12.4604 12.1988 12.8651V25.9595C12.1988 26.3641 12.3595 26.7522 12.6456 27.0383C12.9317 27.3244 13.3198 27.4852 13.7244 27.4852H26.8189C27.2235 27.4852 27.6116 27.3244 27.8977 27.0383C28.1838 26.7522 28.3446 26.3641 28.3446 25.9595V12.8651C28.3446 12.4604 28.1838 12.0724 27.8977 11.7863C27.6116 11.5001 27.2235 11.3394 26.8189 11.3394H13.7244Z" fill="#F8F8F8" stroke="#F8F8F8" stroke-width="0.266667"/>
<path d="M20.2702 24.0856C19.346 24.0846 18.4428 23.8096 17.6749 23.2954C16.9069 22.7812 16.3087 22.0509 15.9558 21.1967C15.6028 20.3426 15.5111 19.403 15.6921 18.4967C15.8731 17.5904 16.3187 16.7581 16.9726 16.105C17.6265 15.4519 18.4594 15.0074 19.3659 14.8276C20.2725 14.6478 21.212 14.7408 22.0657 15.0948C22.9193 15.4489 23.6489 16.0481 24.1621 16.8167C24.6753 17.5853 24.9491 18.4888 24.9489 19.413C24.9473 20.6528 24.4536 21.8413 23.5764 22.7174C22.6991 23.5935 21.51 24.0856 20.2702 24.0856ZM20.2702 15.7513C19.5474 15.7523 18.8411 15.9675 18.2406 16.3697C17.6401 16.7719 17.1722 17.343 16.8961 18.0109C16.6199 18.6789 16.5479 19.4137 16.6892 20.1225C16.8304 20.8313 17.1786 21.4824 17.6897 21.9935C18.2007 22.5045 18.8518 22.8527 19.5606 22.9939C20.2695 23.1352 21.0043 23.0632 21.6722 22.7871C22.3401 22.5109 22.9113 22.0431 23.3134 21.4425C23.7156 20.842 23.9308 20.1357 23.9318 19.413C23.9318 18.4418 23.546 17.5105 22.8593 16.8238C22.1726 16.1371 21.2413 15.7513 20.2702 15.7513Z" fill="#F8F8F8" stroke="#F8F8F8" stroke-width="0.266667"/>
<path d="M25.5602 15.2474C26.1641 15.2474 26.6536 14.7578 26.6536 14.154C26.6536 13.5501 26.1641 13.0605 25.5602 13.0605C24.9563 13.0605 24.4668 13.5501 24.4668 14.154C24.4668 14.7578 24.9563 15.2474 25.5602 15.2474Z" fill="#F8F8F8" stroke="#F8F8F8" stroke-width="0.266667"/>
</svg>
