<svg width="39" height="39" viewBox="0 0 39 39" fill="none" xmlns="http://www.w3.org/2000/svg">
<circle cx="19.5" cy="19.5" r="19.5" fill="#3877A1"/>
<path d="M25.731 10.3301H12.8335C12.1701 10.3319 11.5344 10.5963 11.0653 11.0653C10.5963 11.5344 10.3319 12.1701 10.3301 12.8335V25.731C10.3319 26.3943 10.5963 27.03 11.0653 27.4991C11.5344 27.9682 12.1701 28.2325 12.8335 28.2344H25.731C26.3949 28.2344 27.0317 27.9706 27.5011 27.5011C27.9706 27.0317 28.2344 26.3949 28.2344 25.731V12.8335C28.2344 12.1695 27.9706 11.5328 27.5011 11.0633C27.0317 10.5938 26.3949 10.3301 25.731 10.3301ZM27.233 25.731C27.2301 26.1284 27.0709 26.5088 26.7899 26.7899C26.5088 27.0709 26.1284 27.2301 25.731 27.233H12.8335C12.436 27.2301 12.0556 27.0709 11.7746 26.7899C11.4935 26.5088 11.3343 26.1284 11.3314 25.731V12.8335C11.3343 12.436 11.4935 12.0556 11.7746 11.7746C12.0556 11.4935 12.436 11.3343 12.8335 11.3314H25.731C26.1284 11.3343 26.5088 11.4935 26.7899 11.7746C27.0709 12.0556 27.2301 12.436 27.233 12.8335V25.731Z" fill="#F8F8F8"/>
<path d="M13.6504 18.0287C13.6504 17.7631 13.7559 17.5084 13.9437 17.3206C14.1315 17.1328 14.3862 17.0273 14.6517 17.0273C14.9173 17.0273 15.172 17.1328 15.3598 17.3206C15.5476 17.5084 15.6531 17.7631 15.6531 18.0287V24.5375C15.6531 24.8031 15.5476 25.0578 15.3598 25.2456C15.172 25.4334 14.9173 25.5389 14.6517 25.5389C14.3862 25.5389 14.1315 25.4334 13.9437 25.2456C13.7559 25.0578 13.6504 24.8031 13.6504 24.5375V18.0287Z" fill="#F8F8F8"/>
<path d="M14.6517 15.0203C15.2048 15.0203 15.6531 14.572 15.6531 14.0189C15.6531 13.4659 15.2048 13.0176 14.6517 13.0176C14.0987 13.0176 13.6504 13.4659 13.6504 14.0189C13.6504 14.572 14.0987 15.0203 14.6517 15.0203Z" fill="#F8F8F8"/>
<path d="M24.9097 20.6546V24.5398C24.9097 24.8054 24.8042 25.0601 24.6165 25.2479C24.4287 25.4357 24.174 25.5412 23.9084 25.5412C23.6428 25.5412 23.3881 25.4357 23.2003 25.2479C23.0125 25.0601 22.907 24.8054 22.907 24.5398V20.6546C22.907 20.2257 22.7366 19.8143 22.4334 19.511C22.1301 19.2078 21.7187 19.0374 21.2898 19.0374C20.8609 19.0374 20.4496 19.2078 20.1463 19.511C19.843 19.8143 19.6726 20.2257 19.6726 20.6546V24.5398C19.6726 24.8054 19.5671 25.0601 19.3793 25.2479C19.1916 25.4357 18.9369 25.5412 18.6713 25.5412C18.4057 25.5412 18.151 25.4357 17.9632 25.2479C17.7754 25.0601 17.6699 24.8054 17.6699 24.5398V18.031C17.6741 17.7667 17.7809 17.5144 17.9678 17.3275C18.1547 17.1406 18.407 17.0338 18.6713 17.0296C18.8409 17.025 19.0086 17.0663 19.1567 17.1491C19.3047 17.232 19.4276 17.3533 19.5124 17.5003C20.063 17.1879 20.6859 17.0256 21.3189 17.0296C21.952 17.0337 22.5728 17.2039 23.1193 17.5233C23.6658 17.8427 24.1189 18.3001 24.4331 18.8496C24.7473 19.3991 24.9117 20.0216 24.9097 20.6546Z" fill="#F8F8F8"/>
</svg>
