<svg width="384" height="65" viewBox="0 0 384 65" fill="none" xmlns="http://www.w3.org/2000/svg">
<path fill-rule="evenodd" clip-rule="evenodd" d="M107.102 0.309389C105.196 1.10096 103.303 1.92545 101.431 2.79273C100.046 3.43619 99.9186 4.37258 101.164 5.23986C102.647 6.26677 103.082 7.59812 103.077 9.32116C103.034 22.0374 103.035 34.7536 103.077 47.4698C103.082 49.0546 102.688 50.2576 101.304 51.1791C100.869 51.4688 100.737 52.1995 100.466 52.7294C101.004 52.9762 101.536 53.4222 102.081 53.437C104.84 53.5111 107.603 53.5127 110.363 53.4387C110.967 53.4222 111.56 52.9943 112.156 52.7557C111.815 52.1797 111.61 51.4062 111.104 51.0705C109.818 50.2214 109.306 49.1599 109.321 47.6508C109.373 42.3583 109.309 37.0608 109.364 31.7683C109.379 30.4715 109.545 29.1385 109.882 27.8878C110.907 24.0813 113.975 21.6408 117.81 21.4252C121.449 21.2195 124.298 23.0922 125.773 26.9168C126.386 28.5049 126.837 30.2214 126.965 31.9098C127.359 37.1431 127.533 42.3895 127.867 47.6278C127.962 49.127 127.56 50.2296 126.298 51.1397C125.835 51.4704 125.688 52.2258 125.398 52.7903C125.952 53.0174 126.5 53.4255 127.06 53.4387C129.682 53.5094 132.308 53.5127 134.929 53.4387C135.536 53.4239 136.132 53.019 136.732 52.7919C136.426 52.1879 136.256 51.4326 135.783 51.0113C134.712 50.0634 134.221 48.9854 134.156 47.5751C133.934 42.7845 133.718 37.989 133.319 33.2116C133.156 31.2499 132.723 29.2603 132.082 27.3957C130.025 21.4202 125.081 18.2161 118.713 18.6769C114.887 18.955 111.812 20.7241 109.172 23.6271C109.172 23.0972 109.171 22.5673 109.172 22.0374C109.209 15.2933 109.253 8.55098 109.281 1.80861C109.286 0.567761 109.012 0 108.294 0C107.985 0 107.591 0.105324 107.102 0.309389ZM221.939 8.15013C221.942 10.7947 223.782 12.5112 226.643 12.5359C229.461 12.5622 231.373 10.8063 231.386 8.18304C231.4 5.55159 229.505 3.72488 226.744 3.71007C226.73 3.71007 226.717 3.71007 226.704 3.71007C223.835 3.71007 221.937 5.47753 221.939 8.15013ZM81.8768 12.4724C81.75 13.3216 81.6114 14.1741 81.396 15.0035C80.6131 18.0233 78.9403 19.2872 75.765 19.3086C75.2608 19.3119 74.7516 19.3201 74.2475 19.3102C73.2258 19.2839 72.7283 19.7266 72.7383 20.7733C72.7517 21.8397 73.2942 22.205 74.3009 22.1853C75.6264 22.1589 76.952 22.1787 78.5112 22.1787V24.0087C78.5112 30.2047 78.4996 36.4007 78.5213 42.5967C78.5246 43.7717 78.5713 44.955 78.7516 46.1135C79.6915 52.1334 83.8885 55.0512 89.9736 53.9634C93.8067 53.2805 97.0103 49.6369 96.9369 45.9358C96.9285 45.4701 96.4344 45.0109 96.1656 44.5518C95.6965 44.8891 95.2224 45.215 94.77 45.5721C94.6898 45.6346 94.7249 45.8321 94.6865 45.9588C93.992 48.2891 91.982 49.5958 89.2842 49.4773C87.204 49.3868 85.79 48.062 85.2641 45.6741C85.1373 45.1031 85.0271 44.5156 85.0271 43.933C85.0037 37.059 85.0171 30.1849 84.982 23.3093C84.977 22.3943 85.3242 22.154 86.1924 22.1688C87.6514 22.1902 89.1122 22.1886 90.5713 22.1836C91.7349 22.182 92.8985 22.1787 94.0604 22.1886C95.1372 22.1984 96.017 22.0734 95.9803 20.7058C95.9436 19.4271 95.0922 19.2987 94.0838 19.3037C93.1339 19.3086 92.184 19.3053 91.2357 19.302C89.563 19.2987 87.8885 19.2921 86.2174 19.3267C85.2391 19.3465 84.9453 19.0091 84.9703 18.076C85.0171 16.269 84.9636 14.4588 84.9419 12.6485C84.9319 11.7779 84.6331 11.1674 83.598 11.1312C83.558 11.1295 83.5179 11.1295 83.4795 11.1295C82.5596 11.1295 82.0238 11.5196 81.8768 12.4724ZM186.249 23.319C186.006 23.7386 185.777 24.1665 185.542 24.5894C185.438 24.568 185.333 24.545 185.231 24.5219C185.231 22.9882 185.276 21.4544 185.218 19.9223C185.171 18.716 184.63 18.3885 183.495 18.8608C181.673 19.6162 179.857 20.3929 178.082 21.247C176.505 22.0057 176.41 22.9799 177.854 23.9739C179.239 24.9317 179.742 26.1429 179.729 27.7853C179.668 34.2117 179.657 40.6365 179.734 47.0629C179.757 48.8781 179.406 50.3329 177.75 51.3647C177.38 51.5968 176.979 52.4311 177.128 52.678C177.365 53.0729 178.039 53.3971 178.545 53.4185C180.476 53.5041 182.411 53.4564 184.343 53.4564C185.356 53.4564 186.375 53.5239 187.378 53.4202C187.859 53.3692 188.306 52.9956 188.767 52.7685C188.511 52.2846 188.271 51.7909 187.989 51.3219C187.902 51.182 187.705 51.0965 187.543 51.0092C186.234 50.2983 185.757 49.2253 185.774 47.7541C185.83 42.6426 185.775 37.5294 185.812 32.4163C185.819 31.2018 185.784 29.9083 186.178 28.7909C186.784 27.0744 187.448 25.2329 188.617 23.89C190.72 21.4741 193.905 22.088 195.338 24.9037C195.523 25.2691 195.703 25.6328 195.895 25.9932C196.516 27.1501 197.526 27.5352 198.789 27.3575C200.034 27.1814 200.72 26.4063 201.009 25.2444C201.685 22.5175 200.102 19.8811 197.259 19.0023C196.306 18.7094 195.345 18.5662 194.4 18.5662C191.102 18.5662 188.011 20.2975 186.249 23.319ZM153.794 19.1215C146.136 20.9351 141.011 27.8223 141.041 36.2235C141.074 46.3395 147.073 53.3501 156.645 54.0924C162.321 54.5301 167.178 52.6458 170.505 47.87C171.268 46.7773 171.699 45.4426 172.143 44.1722C172.256 43.8513 171.932 43.1123 171.63 42.9906C171.288 42.8523 170.684 43.0992 170.311 43.351C170.004 43.5633 169.862 44.0158 169.659 44.3696C168.63 46.1486 167.195 47.5096 165.328 48.4263C158.764 51.6502 151.293 48.5628 148.605 41.5193C147.959 39.8276 147.978 39.8243 149.692 39.2664C155.802 37.2817 161.917 35.3085 168.011 33.2761C170.73 32.3693 171.67 30.7072 171.191 27.9144C170.605 24.4964 168.579 22.0772 165.572 20.4447C163.203 19.1594 160.73 18.5834 158.193 18.5834C156.746 18.5834 155.276 18.771 153.794 19.1215ZM151.048 23.3669C155.516 18.7688 162.828 20.844 164.913 27.2112C165.846 30.0615 165.329 31.1329 162.466 32.1598C157.853 33.8153 153.23 35.4495 148.611 37.0886C148.32 37.1906 148.015 37.2597 147.531 37.398C146.987 32.1993 147.219 27.3083 151.048 23.3669ZM247.56 24.013C247.441 24.1776 247.289 24.3158 246.89 24.7519C246.89 23.0272 246.919 21.6482 246.884 20.2707C246.843 18.7073 246.214 18.3107 244.785 18.9608C243.03 19.754 241.298 20.5916 239.565 21.4276C237.95 22.211 237.885 22.9285 239.431 23.8879C240.82 24.7519 241.383 25.9023 241.371 27.5101C241.328 34.2047 241.321 40.901 241.379 47.594C241.393 49.1525 240.91 50.2633 239.585 51.1454C239.109 51.463 238.93 52.2069 238.618 52.7598C239.196 53.0182 239.77 53.4856 240.356 53.502C243.114 53.5827 245.879 53.581 248.638 53.5037C249.234 53.4856 249.817 53.033 250.408 52.7829C250.06 52.2102 249.847 51.44 249.336 51.101C248.054 50.2469 247.551 49.1722 247.566 47.673C247.613 42.3805 247.553 37.088 247.606 31.7955C247.62 30.4954 247.765 29.1656 248.091 27.9083C249.04 24.2418 252.007 21.7913 255.725 21.4392C259.131 21.115 261.955 22.6092 263.491 25.9187C264.298 27.6598 264.93 29.5902 265.095 31.4828C265.575 36.8856 265.742 42.3147 266.101 47.729C266.197 49.1854 265.772 50.237 264.566 51.1158C264.092 51.4597 263.914 52.1888 263.6 52.7434C264.179 53.0083 264.752 53.4823 265.339 53.5004C267.96 53.5827 270.586 53.581 273.207 53.507C273.82 53.4889 274.421 53.0775 275.027 52.8471C274.73 52.2431 274.583 51.4647 274.107 51.0714C273.029 50.181 272.526 49.1311 272.466 47.7849C272.344 45.0745 272.222 42.3624 272.034 39.6569C271.75 35.6052 271.847 31.5009 270.411 27.6006C268.63 22.7639 265.399 19.4643 260.057 18.7633C259.319 18.6662 258.598 18.6185 257.897 18.6185C253.708 18.6185 250.194 20.3596 247.56 24.013ZM227.85 18.918C226.013 19.7507 224.207 20.6509 222.409 21.5593C222.15 21.6893 221.935 21.8144 221.76 21.9361C220.137 21.9477 219.209 21.9575 218.718 21.9641C217.89 21.951 215.705 21.9329 210.698 21.9065C209.374 21.9016 208.918 22.4019 208.93 23.6806C208.942 24.9346 209.351 25.4694 210.698 25.4448C214.237 25.3822 217.775 25.4234 221.316 25.4234C222.291 25.4234 222.867 25.4201 223.262 25.4168C223.666 26.1919 223.832 27.0592 223.823 28.0482C223.77 34.5618 223.771 41.0755 223.823 47.5891C223.833 49.0751 223.407 50.181 222.159 51.0812C221.7 51.4104 221.568 52.1773 221.286 52.7434C221.837 52.982 222.382 53.4082 222.938 53.423C225.65 53.4938 228.367 53.4971 231.082 53.4214C231.678 53.4033 232.261 52.9524 232.85 52.7022C232.506 52.1279 232.297 51.3544 231.788 51.0138C230.513 50.1547 230 49.0965 230.02 47.5874C230.08 43.1556 230.042 38.7221 230.04 34.2887C230.04 29.6297 230.054 24.9708 230.034 20.3119C230.029 19.178 229.683 18.6185 228.965 18.6185C228.661 18.6185 228.291 18.7188 227.85 18.918ZM50.0421 18.6791C47.0154 18.8585 44.1456 19.6649 41.7099 21.5607C40.2225 22.716 39.1056 24.1263 38.957 26.0748C38.8502 27.5033 39.4679 28.4577 40.6765 28.8313C42.0004 29.2394 43.0472 28.8544 43.7433 27.6876C44.3243 26.715 44.8335 25.6996 45.371 24.7023C46.7466 22.1449 48.8635 20.8218 51.8418 20.8942C54.8468 20.9682 57.0004 22.3506 58.3259 24.9755C59.977 28.2438 60.2808 31.7919 60.6064 35.6017C55.9102 32.4732 51.1089 32.3827 46.1857 33.7404C41.8285 34.9417 39.1073 38.1475 38.6665 42.3325C38.2108 46.6689 40.2124 50.5445 44.1106 52.4683C48.1456 54.4563 52.3994 54.6998 56.7316 53.5166C59.0204 52.8879 60.8134 51.5253 62.2808 49.4287C62.4327 50.1215 62.5079 50.5609 62.6247 50.9888C62.9586 52.1869 63.5763 53.3602 64.8685 53.4837C66.8935 53.6746 68.9519 53.5693 70.9886 53.4541C71.376 53.4327 71.987 52.8122 72.0204 52.4271C72.0504 52.0997 71.4628 51.5138 71.0404 51.3821C69.0237 50.7601 68.3042 49.3662 68.1088 47.4144C67.5713 42.0165 67.1806 36.5891 66.2791 31.2472C64.8868 23.0105 59.5897 18.6363 51.4595 18.6363C50.997 18.6363 50.5246 18.6511 50.0421 18.6791ZM44.9976 43.4319C44.7221 38.7187 47.6854 35.4701 52.49 35.2199C58.0426 34.9303 61.0059 37.7494 61.3548 43.6541C61.6252 48.234 58.6703 51.6143 54.1595 51.8809C53.9708 51.8924 53.7822 51.8973 53.5969 51.8973C48.9041 51.8973 45.283 48.3805 44.9976 43.4319ZM12.5345 19.0759C7.28407 19.9432 3.35086 22.8083 1.52616 27.8671C-0.278511 32.875 0.354208 37.6277 4.01697 41.7074C7.37756 45.4464 11.7565 46.8649 16.7615 46.7794C18.254 46.7547 19.8283 46.8073 21.2356 47.2369C24.4393 48.216 26.2306 50.5019 26.5828 53.7998C26.9084 56.8509 25.845 59.331 23.2223 61.0474C17.6864 64.6729 9.75986 62.6125 6.78491 56.8016C6.14718 55.5492 5.67807 54.1866 4.87339 53.0544C4.38258 52.3632 3.44435 51.6934 2.62465 51.5815C0.875075 51.3412 -0.261817 52.9079 0.0520386 54.8909C0.581252 58.2251 2.63133 60.5356 5.43433 62.2504C10.1956 65.1551 15.451 65.3443 20.7899 64.6877C24.2122 64.2664 27.4393 63.2099 30.0586 60.8549C34.5912 56.7818 33.8967 50.2402 28.5912 47.2122C27.6062 46.6494 26.4994 46.2889 25.446 45.8446C25.0553 45.68 24.6513 45.5435 24.1087 45.341C33.1788 41.0343 35.2172 29.554 27.4843 22.7112C28.9318 22.466 30.2022 22.4101 31.3441 22.0036C32.1638 21.7123 33.4276 20.9438 33.4159 20.4089C33.3925 19.196 32.0152 19.3836 31.1104 19.331C27.6646 19.1351 24.2156 18.9459 20.7682 18.8817C19.3926 18.8554 18.0019 18.7928 16.6196 18.7928C15.2423 18.7928 13.8717 18.8537 12.5345 19.0759ZM11.6778 42.3263C7.52919 38.8095 5.62268 31.0616 7.67443 26.0785C9.82301 20.865 16.0651 19.2522 20.7612 22.7279C23.5091 24.7619 24.9315 27.6139 25.6527 30.8312C25.9398 32.1083 26.0316 33.4248 26.262 35.0985C25.9465 36.3097 25.7378 37.9093 25.1235 39.3411C23.7011 42.6555 20.611 44.469 17.3989 44.469C15.4173 44.469 13.3906 43.7795 11.6778 42.3263Z" fill="black"/>
<path fill-rule="evenodd" clip-rule="evenodd" d="M107.102 0.309389C105.196 1.10096 103.303 1.92545 101.431 2.79273C100.046 3.43619 99.9186 4.37258 101.164 5.23986C102.647 6.26677 103.082 7.59812 103.077 9.32116C103.034 22.0374 103.035 34.7536 103.077 47.4698C103.082 49.0546 102.688 50.2576 101.304 51.1791C100.869 51.4688 100.737 52.1995 100.466 52.7294C101.004 52.9762 101.536 53.4222 102.081 53.437C104.84 53.5111 107.603 53.5127 110.363 53.4387C110.967 53.4222 111.56 52.9943 112.156 52.7557C111.815 52.1797 111.61 51.4062 111.104 51.0705C109.818 50.2214 109.306 49.1599 109.321 47.6508C109.373 42.3583 109.309 37.0608 109.364 31.7683C109.379 30.4715 109.545 29.1385 109.882 27.8878C110.907 24.0813 113.975 21.6408 117.81 21.4252C121.449 21.2195 124.298 23.0922 125.773 26.9168C126.386 28.5049 126.837 30.2214 126.965 31.9098C127.359 37.1431 127.533 42.3895 127.867 47.6278C127.962 49.127 127.56 50.2296 126.298 51.1397C125.835 51.4704 125.688 52.2258 125.398 52.7903C125.952 53.0174 126.5 53.4255 127.06 53.4387C129.682 53.5094 132.308 53.5127 134.929 53.4387C135.536 53.4239 136.132 53.019 136.732 52.7919C136.426 52.1879 136.256 51.4326 135.783 51.0113C134.712 50.0634 134.221 48.9854 134.156 47.5751C133.934 42.7845 133.718 37.989 133.319 33.2116C133.156 31.2499 132.723 29.2603 132.082 27.3957C130.025 21.4202 125.081 18.2161 118.713 18.6769C114.887 18.955 111.812 20.7241 109.172 23.6271C109.172 23.0972 109.171 22.5673 109.172 22.0374C109.209 15.2933 109.253 8.55098 109.281 1.80861C109.286 0.567761 109.012 0 108.294 0C107.985 0 107.591 0.105324 107.102 0.309389ZM221.939 8.15013C221.942 10.7947 223.782 12.5112 226.643 12.5359C229.461 12.5622 231.373 10.8063 231.386 8.18304C231.4 5.55159 229.505 3.72488 226.744 3.71007C226.73 3.71007 226.717 3.71007 226.704 3.71007C223.835 3.71007 221.937 5.47753 221.939 8.15013ZM81.8768 12.4724C81.75 13.3216 81.6114 14.1741 81.396 15.0035C80.6131 18.0233 78.9403 19.2872 75.765 19.3086C75.2608 19.3119 74.7516 19.3201 74.2475 19.3102C73.2258 19.2839 72.7283 19.7266 72.7383 20.7733C72.7517 21.8397 73.2942 22.205 74.3009 22.1853C75.6264 22.1589 76.952 22.1787 78.5112 22.1787V24.0087C78.5112 30.2047 78.4996 36.4007 78.5213 42.5967C78.5246 43.7717 78.5713 44.955 78.7516 46.1135C79.6915 52.1334 83.8885 55.0512 89.9736 53.9634C93.8067 53.2805 97.0103 49.6369 96.9369 45.9358C96.9285 45.4701 96.4344 45.0109 96.1656 44.5518C95.6965 44.8891 95.2224 45.215 94.77 45.5721C94.6898 45.6346 94.7249 45.8321 94.6865 45.9588C93.992 48.2891 91.982 49.5958 89.2842 49.4773C87.204 49.3868 85.79 48.062 85.2641 45.6741C85.1373 45.1031 85.0271 44.5156 85.0271 43.933C85.0037 37.059 85.0171 30.1849 84.982 23.3093C84.977 22.3943 85.3242 22.154 86.1924 22.1688C87.6514 22.1902 89.1122 22.1886 90.5713 22.1836C91.7349 22.182 92.8985 22.1787 94.0604 22.1886C95.1372 22.1984 96.017 22.0734 95.9803 20.7058C95.9436 19.4271 95.0922 19.2987 94.0838 19.3037C93.1339 19.3086 92.184 19.3053 91.2357 19.302C89.563 19.2987 87.8885 19.2921 86.2174 19.3267C85.2391 19.3465 84.9453 19.0091 84.9703 18.076C85.0171 16.269 84.9636 14.4588 84.9419 12.6485C84.9319 11.7779 84.6331 11.1674 83.598 11.1312C83.558 11.1295 83.5179 11.1295 83.4795 11.1295C82.5596 11.1295 82.0238 11.5196 81.8768 12.4724ZM186.249 23.319C186.006 23.7386 185.777 24.1665 185.542 24.5894C185.438 24.568 185.333 24.545 185.231 24.5219C185.231 22.9882 185.276 21.4544 185.218 19.9223C185.171 18.716 184.63 18.3885 183.495 18.8608C181.673 19.6162 179.857 20.3929 178.082 21.247C176.505 22.0057 176.41 22.9799 177.854 23.9739C179.239 24.9317 179.742 26.1429 179.729 27.7853C179.668 34.2117 179.657 40.6365 179.734 47.0629C179.757 48.8781 179.406 50.3329 177.75 51.3647C177.38 51.5968 176.979 52.4311 177.128 52.678C177.365 53.0729 178.039 53.3971 178.545 53.4185C180.476 53.5041 182.411 53.4564 184.343 53.4564C185.356 53.4564 186.375 53.5239 187.378 53.4202C187.859 53.3692 188.306 52.9956 188.767 52.7685C188.511 52.2846 188.271 51.7909 187.989 51.3219C187.902 51.182 187.705 51.0965 187.543 51.0092C186.234 50.2983 185.757 49.2253 185.774 47.7541C185.83 42.6426 185.775 37.5294 185.812 32.4163C185.819 31.2018 185.784 29.9083 186.178 28.7909C186.784 27.0744 187.448 25.2329 188.617 23.89C190.72 21.4741 193.905 22.088 195.338 24.9037C195.523 25.2691 195.703 25.6328 195.895 25.9932C196.516 27.1501 197.526 27.5352 198.789 27.3575C200.034 27.1814 200.72 26.4063 201.009 25.2444C201.685 22.5175 200.102 19.8811 197.259 19.0023C196.306 18.7094 195.345 18.5662 194.4 18.5662C191.102 18.5662 188.011 20.2975 186.249 23.319ZM153.794 19.1215C146.136 20.9351 141.011 27.8223 141.041 36.2235C141.074 46.3395 147.073 53.3501 156.645 54.0924C162.321 54.5301 167.178 52.6458 170.505 47.87C171.268 46.7773 171.699 45.4426 172.143 44.1722C172.256 43.8513 171.932 43.1123 171.63 42.9906C171.288 42.8523 170.684 43.0992 170.311 43.351C170.004 43.5633 169.862 44.0158 169.659 44.3696C168.63 46.1486 167.195 47.5096 165.328 48.4263C158.764 51.6502 151.293 48.5628 148.605 41.5193C147.959 39.8276 147.978 39.8243 149.692 39.2664C155.802 37.2817 161.917 35.3085 168.011 33.2761C170.73 32.3693 171.67 30.7072 171.191 27.9144C170.605 24.4964 168.579 22.0772 165.572 20.4447C163.203 19.1594 160.73 18.5834 158.193 18.5834C156.746 18.5834 155.276 18.771 153.794 19.1215ZM151.048 23.3669C155.516 18.7688 162.828 20.844 164.913 27.2112C165.846 30.0615 165.329 31.1329 162.466 32.1598C157.853 33.8153 153.23 35.4495 148.611 37.0886C148.32 37.1906 148.015 37.2597 147.531 37.398C146.987 32.1993 147.219 27.3083 151.048 23.3669ZM247.56 24.013C247.441 24.1776 247.289 24.3158 246.89 24.7519C246.89 23.0272 246.919 21.6482 246.884 20.2707C246.843 18.7073 246.214 18.3107 244.785 18.9608C243.03 19.754 241.298 20.5916 239.565 21.4276C237.95 22.211 237.885 22.9285 239.431 23.8879C240.82 24.7519 241.383 25.9023 241.371 27.5101C241.328 34.2047 241.321 40.901 241.379 47.594C241.393 49.1525 240.91 50.2633 239.585 51.1454C239.109 51.463 238.93 52.2069 238.618 52.7598C239.196 53.0182 239.77 53.4856 240.356 53.502C243.114 53.5827 245.879 53.581 248.638 53.5037C249.234 53.4856 249.817 53.033 250.408 52.7829C250.06 52.2102 249.847 51.44 249.336 51.101C248.054 50.2469 247.551 49.1722 247.566 47.673C247.613 42.3805 247.553 37.088 247.606 31.7955C247.62 30.4954 247.765 29.1656 248.091 27.9083C249.04 24.2418 252.007 21.7913 255.725 21.4392C259.131 21.115 261.955 22.6092 263.491 25.9187C264.298 27.6598 264.93 29.5902 265.095 31.4828C265.575 36.8856 265.742 42.3147 266.101 47.729C266.197 49.1854 265.772 50.237 264.566 51.1158C264.092 51.4597 263.914 52.1888 263.6 52.7434C264.179 53.0083 264.752 53.4823 265.339 53.5004C267.96 53.5827 270.586 53.581 273.207 53.507C273.82 53.4889 274.421 53.0775 275.027 52.8471C274.73 52.2431 274.583 51.4647 274.107 51.0714C273.029 50.181 272.526 49.1311 272.466 47.7849C272.344 45.0745 272.222 42.3624 272.034 39.6569C271.75 35.6052 271.847 31.5009 270.411 27.6006C268.63 22.7639 265.399 19.4643 260.057 18.7633C259.319 18.6662 258.598 18.6185 257.897 18.6185C253.708 18.6185 250.194 20.3596 247.56 24.013ZM227.85 18.918C226.013 19.7507 224.207 20.6509 222.409 21.5593C222.15 21.6893 221.935 21.8144 221.76 21.9361C220.137 21.9477 219.209 21.9575 218.718 21.9641C217.89 21.951 215.705 21.9329 210.698 21.9065C209.374 21.9016 208.918 22.4019 208.93 23.6806C208.942 24.9346 209.351 25.4694 210.698 25.4448C214.237 25.3822 217.775 25.4234 221.316 25.4234C222.291 25.4234 222.867 25.4201 223.262 25.4168C223.666 26.1919 223.832 27.0592 223.823 28.0482C223.77 34.5618 223.771 41.0755 223.823 47.5891C223.833 49.0751 223.407 50.181 222.159 51.0812C221.7 51.4104 221.568 52.1773 221.286 52.7434C221.837 52.982 222.382 53.4082 222.938 53.423C225.65 53.4938 228.367 53.4971 231.082 53.4214C231.678 53.4033 232.261 52.9524 232.85 52.7022C232.506 52.1279 232.297 51.3544 231.788 51.0138C230.513 50.1547 230 49.0965 230.02 47.5874C230.08 43.1556 230.042 38.7221 230.04 34.2887C230.04 29.6297 230.054 24.9708 230.034 20.3119C230.029 19.178 229.683 18.6185 228.965 18.6185C228.661 18.6185 228.291 18.7188 227.85 18.918ZM50.0421 18.6791C47.0154 18.8585 44.1456 19.6649 41.7099 21.5607C40.2225 22.716 39.1056 24.1263 38.957 26.0748C38.8502 27.5033 39.4679 28.4577 40.6765 28.8313C42.0004 29.2394 43.0472 28.8544 43.7433 27.6876C44.3243 26.715 44.8335 25.6996 45.371 24.7023C46.7466 22.1449 48.8635 20.8218 51.8418 20.8942C54.8468 20.9682 57.0004 22.3506 58.3259 24.9755C59.977 28.2438 60.2808 31.7919 60.6064 35.6017C55.9102 32.4732 51.1089 32.3827 46.1857 33.7404C41.8285 34.9417 39.1073 38.1475 38.6665 42.3325C38.2108 46.6689 40.2124 50.5445 44.1106 52.4683C48.1456 54.4563 52.3994 54.6998 56.7316 53.5166C59.0204 52.8879 60.8134 51.5253 62.2808 49.4287C62.4327 50.1215 62.5079 50.5609 62.6247 50.9888C62.9586 52.1869 63.5763 53.3602 64.8685 53.4837C66.8935 53.6746 68.9519 53.5693 70.9886 53.4541C71.376 53.4327 71.987 52.8122 72.0204 52.4271C72.0504 52.0997 71.4628 51.5138 71.0404 51.3821C69.0237 50.7601 68.3042 49.3662 68.1088 47.4144C67.5713 42.0165 67.1806 36.5891 66.2791 31.2472C64.8868 23.0105 59.5897 18.6363 51.4595 18.6363C50.997 18.6363 50.5246 18.6511 50.0421 18.6791ZM44.9976 43.4319C44.7221 38.7187 47.6854 35.4701 52.49 35.2199C58.0426 34.9303 61.0059 37.7494 61.3548 43.6541C61.6252 48.234 58.6703 51.6143 54.1595 51.8809C53.9708 51.8924 53.7822 51.8973 53.5969 51.8973C48.9041 51.8973 45.283 48.3805 44.9976 43.4319ZM12.5345 19.0759C7.28407 19.9432 3.35086 22.8083 1.52616 27.8671C-0.278511 32.875 0.354208 37.6277 4.01697 41.7074C7.37756 45.4464 11.7565 46.8649 16.7615 46.7794C18.254 46.7547 19.8283 46.8073 21.2356 47.2369C24.4393 48.216 26.2306 50.5019 26.5828 53.7998C26.9084 56.8509 25.845 59.331 23.2223 61.0474C17.6864 64.6729 9.75986 62.6125 6.78491 56.8016C6.14718 55.5492 5.67807 54.1866 4.87339 53.0544C4.38258 52.3632 3.44435 51.6934 2.62465 51.5815C0.875075 51.3412 -0.261817 52.9079 0.0520386 54.8909C0.581252 58.2251 2.63133 60.5356 5.43433 62.2504C10.1956 65.1551 15.451 65.3443 20.7899 64.6877C24.2122 64.2664 27.4393 63.2099 30.0586 60.8549C34.5912 56.7818 33.8967 50.2402 28.5912 47.2122C27.6062 46.6494 26.4994 46.2889 25.446 45.8446C25.0553 45.68 24.6513 45.5435 24.1087 45.341C33.1788 41.0343 35.2172 29.554 27.4843 22.7112C28.9318 22.466 30.2022 22.4101 31.3441 22.0036C32.1638 21.7123 33.4276 20.9438 33.4159 20.4089C33.3925 19.196 32.0152 19.3836 31.1104 19.331C27.6646 19.1351 24.2156 18.9459 20.7682 18.8817C19.3926 18.8554 18.0019 18.7928 16.6196 18.7928C15.2423 18.7928 13.8717 18.8537 12.5345 19.0759ZM11.6778 42.3263C7.52919 38.8095 5.62268 31.0616 7.67443 26.0785C9.82301 20.865 16.0651 19.2522 20.7612 22.7279C23.5091 24.7619 24.9315 27.6139 25.6527 30.8312C25.9398 32.1083 26.0316 33.4248 26.262 35.0985C25.9465 36.3097 25.7378 37.9093 25.1235 39.3411C23.7011 42.6555 20.611 44.469 17.3989 44.469C15.4173 44.469 13.3906 43.7795 11.6778 42.3263Z" fill="#B20056"/>
<path d="M282.811 31.0426C282.811 23.8991 288.619 18.1082 295.784 18.1082H371.027C378.192 18.1082 384 23.8991 384 31.0426V41.3901C384 48.5336 378.192 54.3245 371.027 54.3245H295.784C288.619 54.3245 282.811 48.5336 282.811 41.3901V31.0426Z" fill="#B20056"/>
<path d="M297.47 46.5895C297.263 46.4343 297.064 46.2619 296.874 46.0722C296.822 46.0032 296.778 45.9083 296.744 45.7876C296.709 45.7014 296.675 45.6152 296.64 45.5289C296.623 45.4427 296.597 45.3565 296.562 45.2702C296.51 45.1323 296.467 44.9253 296.432 44.6494C296.363 44.3045 296.329 43.9078 296.329 43.4594L296.277 42.8644C296.259 42.6747 296.251 42.3815 296.251 41.9849V39.6567C296.233 39.3463 296.225 38.872 296.225 38.2339C296.225 37.7683 296.233 37.4147 296.251 37.1733C296.268 36.9146 296.268 36.6904 296.251 36.5007C296.251 36.311 296.251 36.1558 296.251 36.0351V35.466C296.251 35.0348 296.242 34.7071 296.225 34.4829C296.225 33.8448 296.216 33.362 296.199 33.0343L296.225 32.6463L296.251 32.31C296.251 32.103 296.225 31.9133 296.173 31.7408C296.156 31.6546 296.147 31.5425 296.147 31.4046C296.147 31.2321 296.173 31.0855 296.225 30.9648V30.8354C296.208 30.8182 296.19 30.8009 296.173 30.7837C296.156 30.7665 296.138 30.7578 296.121 30.7578C295.81 30.7061 295.498 30.6802 295.187 30.6802L294.201 30.7061C293.613 30.7406 293.181 30.7492 292.904 30.732C292.558 30.732 292.298 30.7061 292.125 30.6544C291.728 30.5681 291.425 30.3957 291.217 30.137C291.148 30.068 291.079 29.999 291.01 29.93C290.941 29.861 290.88 29.7921 290.828 29.7231C290.672 29.5334 290.595 29.3264 290.595 29.1022C290.595 28.809 290.698 28.5762 290.906 28.4038L291.113 28.2486C291.286 28.0761 291.52 27.9726 291.814 27.9381C292.541 27.8691 293.068 27.8433 293.397 27.8605L294.201 27.8347C294.478 27.8174 294.91 27.8088 295.498 27.8088C295.706 27.8088 295.862 27.8002 295.965 27.7829H296.251C296.562 27.7829 296.796 27.7915 296.951 27.8088C297.09 27.826 297.271 27.826 297.496 27.8088C297.738 27.7915 297.929 27.7829 298.067 27.7829L298.456 27.7571L299.52 27.7829H301.881C302.538 27.7829 303.126 27.8605 303.645 28.0157L303.775 28.0416C304.069 28.1106 304.337 28.3175 304.579 28.6625C304.683 28.8177 304.735 28.9729 304.735 29.1281C304.735 29.2833 304.675 29.4558 304.553 29.6455C304.346 29.9731 304.095 30.1801 303.801 30.2663L303.308 30.4474C303.308 30.5854 302.858 30.6544 301.959 30.6544C301.544 30.6716 301.172 30.6802 300.843 30.6802C300.515 30.663 300.333 30.6544 300.298 30.6544C299.901 30.6544 299.667 30.7492 299.598 30.9389C299.563 30.9907 299.546 31.0941 299.546 31.2493C299.546 31.5598 299.529 31.9909 299.494 32.5428C299.494 32.7842 299.485 32.9653 299.468 33.086C299.416 33.3965 299.39 33.7069 299.39 34.0173C299.39 34.2415 299.399 34.4053 299.416 34.5088C299.434 34.733 299.442 35.0779 299.442 35.5436C299.442 36.0092 299.434 36.3627 299.416 36.6042C299.399 36.7766 299.39 37.0181 299.39 37.3285C299.356 38.8117 299.338 39.9326 299.338 40.6915L299.312 41.0019C299.312 41.1054 299.33 41.2606 299.364 41.4675C299.382 41.571 299.39 41.7262 299.39 41.9332V43.4335C299.39 43.8647 299.364 44.3045 299.312 44.7529C299.295 45.0978 299.183 45.4427 298.975 45.7876C298.958 45.8393 298.906 45.9083 298.819 45.9946C298.681 46.0808 298.508 46.2446 298.301 46.4861C298.214 46.624 298.058 46.693 297.833 46.693C297.661 46.693 297.539 46.6585 297.47 46.5895Z" fill="#F8F8F8"/>
<path d="M304.952 46.9776C304.918 46.9776 304.866 46.9603 304.797 46.9258C304.589 46.8741 304.425 46.8137 304.304 46.7448L303.966 46.5378L303.811 46.4343C303.759 46.3826 303.733 46.3222 303.733 46.2532C303.698 46.0118 303.681 45.8221 303.681 45.6841C303.681 45.3565 303.75 44.9857 303.889 44.5718C303.958 44.3476 304.001 44.201 304.018 44.132L304.122 43.8216L304.459 42.761L304.667 42.1401C304.875 41.5193 305.143 40.8208 305.471 40.0447L306.016 38.5702C306.155 38.1908 306.241 37.9666 306.276 37.8976L306.354 37.6648L306.457 37.432C306.457 37.3975 306.475 37.3458 306.509 37.2768C306.578 37.1043 306.622 36.9663 306.639 36.8629C306.743 36.4662 306.907 35.9575 307.132 35.3366C307.184 35.1986 307.296 34.8796 307.469 34.3795C307.521 34.2415 307.564 34.0949 307.599 33.9397C307.651 33.7845 307.703 33.6293 307.755 33.4741C307.806 33.3878 307.841 33.293 307.858 33.1895C307.893 33.0515 307.962 32.8618 308.066 32.6204C308.222 32.2927 308.308 31.9823 308.325 31.6891C308.343 31.4822 308.412 31.2148 308.533 30.8872L308.585 30.732C308.723 30.4043 308.827 30.0852 308.896 29.7748C308.965 29.5161 309.086 29.2574 309.259 28.9988L309.363 28.8177L309.571 28.5072C309.675 28.3693 309.77 28.2744 309.856 28.2227L310.09 28.0675L310.271 27.9381C310.427 27.8347 310.574 27.7829 310.712 27.7829C310.782 27.7829 310.833 27.7915 310.868 27.8088L311.05 27.8347L311.179 27.8605C311.301 27.895 311.404 27.9554 311.491 28.0416C311.664 28.2141 311.793 28.4124 311.88 28.6366C312.278 29.6369 312.52 30.2663 312.606 30.525V30.5509C312.728 30.7578 312.849 31.0683 312.97 31.4822C312.987 31.5684 313.03 31.6977 313.099 31.8702L313.151 32.0513C313.255 32.4134 313.368 32.698 313.489 32.9049L313.566 33.1119L313.748 33.5775L314.293 35.0003L314.397 35.4401L314.475 35.7246L314.838 36.8887L314.89 37.0698L314.993 37.3285L315.019 37.3802C315.037 37.4492 315.08 37.57 315.149 37.7424C315.218 37.9149 315.262 38.0701 315.279 38.208C315.314 38.415 315.365 38.5788 315.435 38.6996C315.538 38.9582 315.651 39.2773 315.772 39.6567C315.806 39.7947 315.841 39.9068 315.876 39.993V40.0447C315.893 40.1137 315.962 40.2862 316.083 40.5621C316.256 40.8898 316.438 41.3037 316.628 41.8038L316.732 42.0884L316.914 42.5281C317.017 42.7006 317.095 42.8817 317.147 43.0714C317.182 43.2266 317.233 43.3818 317.303 43.537C317.441 43.8302 317.562 44.3131 317.666 44.9857V45.0374C317.683 45.1064 317.692 45.2185 317.692 45.3737C317.692 45.5979 317.657 45.8049 317.588 45.9946C317.519 46.167 317.389 46.2964 317.199 46.3826H317.173L316.784 46.5119C316.68 46.5464 316.594 46.5637 316.524 46.5637H316.317C316.075 46.5292 315.902 46.4257 315.798 46.2532C315.729 46.167 315.547 45.8997 315.253 45.4513L315.175 45.3478L315.123 45.2185L314.734 44.0803C314.578 43.6146 314.379 43.1662 314.137 42.7351L313.956 42.4505L313.826 42.2695L313.489 42.166C313.385 42.1315 313.29 42.097 313.203 42.0625C313.134 42.028 313.065 42.0021 312.996 41.9849C312.684 41.8814 312.382 41.8297 312.088 41.8297H311.854L311.569 41.8555C311.378 41.8555 311.179 41.8383 310.972 41.8038C310.626 41.7693 310.332 41.7521 310.09 41.7521L309.571 41.7779C309.017 41.8124 308.516 41.9677 308.066 42.2436C307.806 42.3816 307.616 42.5713 307.495 42.8127L307.469 42.8644C307.452 42.8989 307.426 42.942 307.391 42.9938C307.357 43.0455 307.331 43.1059 307.314 43.1749C307.244 43.3991 307.08 43.8043 306.821 44.3907C306.578 44.9943 306.44 45.3306 306.405 45.3996C306.388 45.4686 306.345 45.572 306.276 45.71L306.198 45.8911C306.077 46.1498 305.904 46.3826 305.679 46.5895C305.575 46.693 305.463 46.7706 305.342 46.8224C305.272 46.8396 305.169 46.8827 305.03 46.9517L304.952 46.9776ZM311.387 39.4756C311.681 39.4756 311.923 39.3721 312.113 39.1652C312.321 38.941 312.425 38.6996 312.425 38.4409C312.425 38.1477 312.399 37.8976 312.347 37.6907L312.269 37.432C312.2 37.0698 312.096 36.7077 311.958 36.3455C311.785 35.8799 311.603 35.3194 311.413 34.664L311.179 34.0432L311.128 33.9397C311.11 33.888 311.084 33.8535 311.05 33.8362C311.032 33.8017 311.015 33.7759 310.998 33.7586L310.972 33.7327C310.868 33.6638 310.782 33.6293 310.712 33.6293C310.574 33.6293 310.462 33.6896 310.375 33.8104L310.297 34.0173L310.168 34.3277C310.064 34.4829 309.986 34.6813 309.934 34.9227C309.848 35.3366 309.709 35.7246 309.519 36.0868C309.363 36.3972 309.285 36.6904 309.285 36.9663C309.285 37.0698 309.294 37.1561 309.311 37.225L309.285 37.3285L309.259 37.3802C309.121 37.6562 309.052 37.9407 309.052 38.2339C309.052 38.4926 309.112 38.7341 309.233 38.9582L309.259 39.0359L309.311 39.1393L309.363 39.1652C309.588 39.3032 309.839 39.3721 310.116 39.3721C310.185 39.3894 310.306 39.398 310.479 39.398L311.283 39.4756H311.387Z" fill="#F8F8F8"/>
<path d="M325.382 46.5378C325.053 46.5206 324.828 46.5033 324.707 46.4861C324.586 46.4516 324.422 46.3998 324.214 46.3309C324.024 46.2619 323.868 46.2015 323.747 46.1498C323.678 46.1325 323.548 46.0894 323.358 46.0204C323.168 45.9342 322.995 45.8911 322.839 45.8911C322.787 45.8911 322.744 45.8825 322.709 45.8652C322.675 45.848 322.64 45.8307 322.605 45.8135C322.571 45.7962 322.45 45.7445 322.242 45.6583C322.052 45.5548 321.888 45.4254 321.749 45.2702C321.697 45.2185 321.628 45.1754 321.542 45.1409C321.421 45.1064 321.317 45.046 321.23 44.9598C321.144 44.8736 321.092 44.8218 321.075 44.8046C321.075 44.8046 320.919 44.6235 320.608 44.2613L320.244 44.132L320.063 43.6146C320.045 43.5629 320.037 43.4853 320.037 43.3818V43.0196C320.019 42.9679 320.011 42.8989 320.011 42.8127C320.011 42.7265 320.028 42.5971 320.063 42.4247C320.097 42.3212 320.115 42.235 320.115 42.166C320.132 42.0797 320.141 42.0108 320.141 41.959C320.21 41.4417 320.512 41.1054 321.049 40.9501C321.204 40.8984 321.343 40.8725 321.464 40.8725C321.723 40.8725 321.965 40.9501 322.19 41.1054C322.225 41.1226 322.259 41.1398 322.294 41.1571C322.346 41.1743 322.398 41.2088 322.45 41.2606C322.536 41.3123 322.605 41.3813 322.657 41.4675C322.692 41.5537 322.752 41.6917 322.839 41.8814C322.943 42.0539 323.012 42.2091 323.046 42.3471C323.046 42.3815 323.09 42.4678 323.176 42.6057L323.28 42.761C323.47 43.0024 323.617 43.1662 323.721 43.2525C323.842 43.3214 324.05 43.3904 324.344 43.4594C324.69 43.5629 325.027 43.6146 325.356 43.6146C325.511 43.6146 325.658 43.6233 325.797 43.6405C325.952 43.6577 326.108 43.6664 326.264 43.6664C326.506 43.6664 326.679 43.6405 326.783 43.5888C326.835 43.5715 326.912 43.537 327.016 43.4853C327.137 43.4163 327.25 43.3732 327.353 43.3559C327.475 43.3559 327.57 43.3473 327.639 43.3301C327.795 43.2783 327.942 43.1404 328.08 42.9162C328.236 42.692 328.348 42.4764 328.417 42.2695C328.521 42.0108 328.573 41.7348 328.573 41.4416C328.573 41.2002 328.556 41.0191 328.521 40.8984L328.443 40.6138C328.426 40.5449 328.409 40.4586 328.391 40.3552C328.374 40.2344 328.339 40.1051 328.288 39.9671C328.288 39.9154 328.27 39.8378 328.236 39.7343C327.976 39.2514 327.699 38.8375 327.405 38.4926C327.163 38.2857 326.964 38.1563 326.809 38.1046C326.739 38.0873 326.601 38.0183 326.393 37.8976C326.048 37.6734 325.719 37.5268 325.408 37.4579C324.975 37.3544 324.499 37.1474 323.981 36.837L323.202 36.3714L322.579 36.0351C322.233 35.8454 321.939 35.6298 321.697 35.3883L321.438 35.1555C321.109 34.9141 320.902 34.5347 320.815 34.0173C320.798 33.9138 320.781 33.7759 320.763 33.6034C320.746 33.4309 320.711 33.2326 320.659 33.0084C320.625 32.8015 320.608 32.6376 320.608 32.5169C320.608 32.2065 320.659 31.8961 320.763 31.5856C320.884 31.1717 321.04 30.8096 321.23 30.4991C321.403 30.1887 321.593 29.9387 321.801 29.7489C321.801 29.7489 321.888 29.6627 322.061 29.4903C322.406 29.1453 322.64 28.9211 322.761 28.8177C322.899 28.7142 323.185 28.5417 323.617 28.3003C323.773 28.2141 323.868 28.171 323.903 28.171C324.006 28.1192 324.179 28.0589 324.422 27.9899C324.525 27.9381 324.595 27.9123 324.629 27.9123C324.854 27.895 325.174 27.8347 325.589 27.7312H325.926C326.03 27.7484 326.16 27.7571 326.316 27.7571C326.489 27.7571 326.618 27.7484 326.705 27.7312L326.938 27.7053C327.008 27.7053 327.111 27.7226 327.25 27.7571C328.685 28.033 329.766 28.7056 330.493 29.7748C330.528 29.8093 330.605 29.93 330.726 30.137L331.09 31.0941C331.142 31.2148 331.168 31.3528 331.168 31.508C331.168 31.646 331.142 31.7926 331.09 31.9478L331.064 32.0771C330.943 32.491 330.588 32.698 330 32.698C329.637 32.698 329.291 32.5859 328.962 32.3617C328.685 32.1892 328.469 31.9564 328.314 31.6632C328.175 31.439 327.985 31.2321 327.743 31.0424L327.431 30.8872C327.397 30.8699 327.353 30.8613 327.302 30.8613C327.267 30.8441 327.232 30.8182 327.198 30.7837C327.008 30.6457 326.791 30.5595 326.549 30.525C326.307 30.4733 326.151 30.4388 326.082 30.4215C325.892 30.387 325.754 30.387 325.667 30.4215C325.338 30.525 325.044 30.6716 324.785 30.8613C324.543 31.051 324.283 31.3011 324.006 31.6115C323.782 31.8529 323.669 32.2151 323.669 32.698C323.669 33.0257 323.73 33.2844 323.851 33.4741C323.955 33.6465 324.11 33.8104 324.318 33.9656C324.543 34.1035 324.759 34.2243 324.966 34.3277C325.174 34.4312 325.321 34.5088 325.408 34.5605C325.529 34.6295 325.632 34.6985 325.719 34.7675C325.823 34.8192 325.909 34.8624 325.978 34.8968L326.238 35.0262C326.445 35.0779 326.644 35.1642 326.835 35.2849C327.042 35.4056 327.172 35.4746 327.224 35.4918C327.535 35.6988 327.743 35.8195 327.846 35.854C328.192 36.0609 328.452 36.242 328.625 36.3972C329.075 36.7594 329.343 36.9663 329.429 37.0181C329.602 37.1388 329.758 37.294 329.896 37.4837C330.052 37.6562 330.147 37.7597 330.182 37.7941C330.406 38.0873 330.579 38.4236 330.701 38.803C330.839 39.1824 330.925 39.4066 330.96 39.4756V39.605C331.064 39.8119 331.133 40.0447 331.168 40.3034C331.202 40.5621 331.219 40.7173 331.219 40.7691C331.219 40.8898 331.237 41.0881 331.271 41.364C331.289 41.4158 331.297 41.502 331.297 41.6227C331.297 41.7779 331.263 42.0108 331.193 42.3212L331.064 42.8903L331.012 43.0714C330.908 43.2438 330.787 43.5198 330.649 43.8992C330.597 44.0716 330.51 44.2182 330.389 44.339L330.259 44.4942C330.104 44.6149 329.81 44.8908 329.377 45.322L329.014 45.71C328.824 45.8997 328.521 46.0894 328.106 46.2791C328.054 46.2964 327.942 46.3309 327.769 46.3826L327.353 46.4085C326.731 46.443 326.272 46.4861 325.978 46.5378C325.892 46.555 325.771 46.5637 325.615 46.5637L325.382 46.5378Z" fill="#F8F8F8"/>
<path d="M339.998 46.5895C339.791 46.4343 339.592 46.2619 339.402 46.0722C339.35 46.0032 339.306 45.9083 339.272 45.7876C339.237 45.7014 339.203 45.6152 339.168 45.5289C339.151 45.4427 339.125 45.3565 339.09 45.2702C339.038 45.1323 338.995 44.9253 338.96 44.6494C338.891 44.3045 338.857 43.9078 338.857 43.4594L338.805 42.8644C338.788 42.6747 338.779 42.3815 338.779 41.9849V39.6567C338.762 39.3463 338.753 38.872 338.753 38.2339C338.753 37.7683 338.762 37.4147 338.779 37.1733C338.796 36.9146 338.796 36.6904 338.779 36.5007C338.779 36.311 338.779 36.1558 338.779 36.0351V35.466C338.779 35.0348 338.77 34.7071 338.753 34.4829C338.753 33.8448 338.744 33.362 338.727 33.0343L338.753 32.6463L338.779 32.31C338.779 32.103 338.753 31.9133 338.701 31.7408C338.684 31.6546 338.675 31.5425 338.675 31.4046C338.675 31.2321 338.701 31.0855 338.753 30.9648V30.8354C338.736 30.8182 338.718 30.8009 338.701 30.7837C338.684 30.7665 338.666 30.7578 338.649 30.7578C338.338 30.7061 338.026 30.6802 337.715 30.6802L336.729 30.7061C336.141 30.7406 335.709 30.7492 335.432 30.732C335.086 30.732 334.826 30.7061 334.653 30.6544C334.256 30.5681 333.953 30.3957 333.745 30.137C333.676 30.068 333.607 29.999 333.538 29.93C333.469 29.861 333.408 29.7921 333.356 29.7231C333.2 29.5334 333.123 29.3264 333.123 29.1022C333.123 28.809 333.226 28.5762 333.434 28.4038L333.642 28.2486C333.815 28.0761 334.048 27.9726 334.342 27.9381C335.069 27.8691 335.596 27.8433 335.925 27.8605L336.729 27.8347C337.006 27.8174 337.438 27.8088 338.026 27.8088C338.234 27.8088 338.39 27.8002 338.493 27.7829H338.779C339.09 27.7829 339.324 27.7915 339.479 27.8088C339.618 27.826 339.799 27.826 340.024 27.8088C340.266 27.7915 340.457 27.7829 340.595 27.7829L340.984 27.7571L342.048 27.7829H344.409C345.066 27.7829 345.655 27.8605 346.173 28.0157L346.303 28.0416C346.597 28.1106 346.865 28.3175 347.108 28.6625C347.211 28.8177 347.263 28.9729 347.263 29.1281C347.263 29.2833 347.203 29.4558 347.082 29.6455C346.874 29.9731 346.623 30.1801 346.329 30.2663L345.836 30.4474C345.836 30.5854 345.386 30.6544 344.487 30.6544C344.072 30.6716 343.7 30.6802 343.371 30.6802C343.043 30.663 342.861 30.6544 342.826 30.6544C342.429 30.6544 342.195 30.7492 342.126 30.9389C342.091 30.9907 342.074 31.0941 342.074 31.2493C342.074 31.5598 342.057 31.9909 342.022 32.5428C342.022 32.7842 342.013 32.9653 341.996 33.086C341.944 33.3965 341.918 33.7069 341.918 34.0173C341.918 34.2415 341.927 34.4053 341.944 34.5088C341.962 34.733 341.97 35.0779 341.97 35.5436C341.97 36.0092 341.962 36.3627 341.944 36.6042C341.927 36.7766 341.918 37.0181 341.918 37.3285C341.884 38.8117 341.866 39.9326 341.866 40.6915L341.84 41.0019C341.84 41.1054 341.858 41.2606 341.892 41.4675C341.91 41.571 341.918 41.7262 341.918 41.9332V43.4335C341.918 43.8647 341.892 44.3045 341.84 44.7529C341.823 45.0978 341.711 45.4427 341.503 45.7876C341.486 45.8393 341.434 45.9083 341.348 45.9946C341.209 46.0808 341.036 46.2446 340.829 46.4861C340.742 46.624 340.586 46.693 340.362 46.693C340.189 46.693 340.067 46.6585 339.998 46.5895Z" fill="#F8F8F8"/>
<path d="M357.045 46.6413C356.318 46.6068 355.782 46.5895 355.436 46.5895C355.332 46.5723 355.168 46.5637 354.943 46.5637C354.77 46.5809 354.511 46.5895 354.165 46.5895C353.784 46.5895 353.231 46.5723 352.504 46.5378C351.916 46.5033 351.363 46.374 350.844 46.1498C350.671 46.0808 350.55 45.9687 350.48 45.8135C350.29 45.3996 350.195 45.0115 350.195 44.6494C350.212 44.3045 350.186 43.7698 350.117 43.0455C350.083 42.7696 350.074 42.5626 350.091 42.4247C350.109 42.3212 350.117 42.1574 350.117 41.9332C350.117 41.6917 350.1 41.3468 350.065 40.8984C350.048 40.7432 350.031 40.5621 350.013 40.3552C349.996 40.131 349.987 39.8809 349.987 39.605C349.987 39.467 350.005 39.26 350.039 38.9841C350.074 38.8806 350.074 38.7772 350.039 38.6737C350.039 38.3288 350.022 37.7941 349.987 37.0698C349.987 36.9836 349.97 36.837 349.936 36.6301C349.884 36.5093 349.858 36.3282 349.858 36.0868C349.91 35.259 349.936 34.4398 349.936 33.6293V32.8273L349.91 32.5945L349.936 32.3876C349.97 32.2151 349.987 32.0944 349.987 32.0254C349.987 31.9392 349.97 31.8271 349.936 31.6891C349.901 31.2752 349.884 30.9734 349.884 30.7837L349.91 30.1629C349.91 30.0766 349.927 29.9473 349.962 29.7748C349.979 29.6541 349.996 29.542 350.013 29.4385C350.048 29.335 350.074 29.2229 350.091 29.1022C350.16 28.8435 350.256 28.6538 350.377 28.5331L350.61 28.2227C350.731 28.0502 350.887 27.9123 351.077 27.8088C351.319 27.6881 351.536 27.6277 351.726 27.6277C351.882 27.6277 352.02 27.6536 352.141 27.7053C352.349 27.7571 352.53 27.7743 352.686 27.7571C352.997 27.7571 353.447 27.7398 354.035 27.7053C354.606 27.6536 355.116 27.6363 355.566 27.6536H357.304C357.702 27.6536 357.996 27.6794 358.186 27.7312C358.204 27.7312 358.23 27.7398 358.264 27.7571C358.316 27.7571 358.351 27.7484 358.368 27.7312C358.61 27.7312 358.939 27.8174 359.354 27.9899C359.423 28.0071 359.57 28.0933 359.795 28.2486C360.02 28.421 360.132 28.6625 360.132 28.9729C360.132 29.1453 360.072 29.2919 359.951 29.4127L359.639 29.6455C359.276 29.9904 358.852 30.1715 358.368 30.1887C357.572 30.2577 356.976 30.2922 356.578 30.2922C355.972 30.2749 355.315 30.3181 354.606 30.4215C354.381 30.456 354.061 30.5595 353.646 30.732C353.49 30.7665 353.369 30.8786 353.283 31.0683L353.101 31.7408C353.066 31.8961 353.032 32.1289 352.997 32.4393C352.945 32.698 352.902 33.0774 352.867 33.5775C352.867 34.2329 352.859 34.7244 352.842 35.0521L352.867 35.2331C352.885 35.3194 352.919 35.3883 352.971 35.4401C353.04 35.4918 353.11 35.5177 353.179 35.5177L353.931 35.5694C354.312 35.6039 354.589 35.6212 354.762 35.6212C354.883 35.6384 355.073 35.647 355.332 35.647C355.453 35.6643 355.6 35.6729 355.773 35.6729C355.946 35.6557 356.076 35.647 356.163 35.647L356.993 35.6212C357.391 35.6212 357.711 35.6643 357.953 35.7505C358.143 35.8195 358.273 35.9661 358.342 36.1903C358.411 36.4145 358.454 36.6818 358.472 36.9922C358.472 37.1992 358.42 37.3802 358.316 37.5355C358.091 37.8631 357.797 38.0528 357.434 38.1046L357.174 38.1304L355.722 38.208C355.531 38.208 355.298 38.2253 355.021 38.2598L354.243 38.3374C353.949 38.3719 353.706 38.4409 353.516 38.5443L353.075 38.7772C353.04 38.8806 353.023 38.9324 353.023 38.9324L352.971 39.8119L352.945 40.1482C352.945 40.3896 352.98 40.6138 353.049 40.8208C353.084 40.907 353.101 41.0536 353.101 41.2606C353.101 41.3123 353.101 41.3813 353.101 41.4675C353.118 41.5537 353.118 41.6572 353.101 41.7779C353.084 42.0194 353.11 42.2695 353.179 42.5281C353.248 42.7696 353.291 42.9162 353.309 42.9679C353.395 43.2266 353.585 43.4422 353.879 43.6146C353.983 43.6664 354.087 43.6922 354.191 43.6922C354.329 43.7095 354.537 43.7181 354.813 43.7181C354.934 43.7181 355.082 43.7181 355.255 43.7181C355.445 43.7009 355.661 43.7009 355.903 43.7181H357.2C357.477 43.7181 357.797 43.7354 358.16 43.7698C358.524 43.8043 358.775 43.8302 358.913 43.8474C358.947 43.8474 359.242 43.8992 359.795 44.0027C360.158 44.0716 360.366 44.3045 360.418 44.7011C360.435 44.7356 360.444 44.7787 360.444 44.8305V44.9081L360.47 45.2444C360.47 45.3823 360.435 45.4944 360.366 45.5807C360.158 45.8221 359.985 46.0032 359.847 46.1239C359.709 46.2446 359.536 46.3309 359.328 46.3826C358.325 46.555 357.564 46.6413 357.045 46.6413Z" fill="#F8F8F8"/>
<path d="M363.81 46.7189C363.482 46.5637 363.231 46.3826 363.058 46.1756C362.816 45.848 362.669 45.4944 362.617 45.115L362.565 44.3131L362.539 41.8555V39.7602L362.565 39.4498C362.599 39.0014 362.617 38.346 362.617 37.4837V31.0424C362.651 30.8354 362.669 30.663 362.669 30.525C362.686 30.3698 362.695 30.2405 362.695 30.137L362.798 29.3868C362.833 29.1626 362.945 28.878 363.136 28.5331L363.291 28.352C363.291 28.352 363.36 28.2831 363.499 28.1451C363.793 27.8864 364.087 27.7571 364.381 27.7571H365.211C365.384 27.7398 365.652 27.7312 366.016 27.7312C366.292 27.7312 366.725 27.7484 367.313 27.7829L367.598 27.8088L367.884 27.7829C368.091 27.7484 368.238 27.7398 368.325 27.7571L368.947 27.8347C369.086 27.8519 369.285 27.8864 369.544 27.9381C369.821 27.9726 370.055 28.0157 370.245 28.0675C370.556 28.1537 370.824 28.2917 371.049 28.4814C371.516 28.8953 371.957 29.3782 372.372 29.93C372.545 30.1715 372.684 30.4388 372.787 30.732C372.805 30.7665 372.813 30.8096 372.813 30.8613C372.865 30.9993 372.952 31.2925 373.073 31.7408L373.099 32.5169C373.099 32.6376 373.082 32.836 373.047 33.1119V33.3447C372.995 34.0863 372.77 34.7589 372.372 35.3625L372.269 35.5694C372.165 35.8454 372 36.1213 371.776 36.3972C371.551 36.6732 371.395 36.8629 371.309 36.9663C371.257 37.0353 371.188 37.1129 371.101 37.1992C371.015 37.2854 370.945 37.3458 370.893 37.3802L370.738 37.5613C370.72 37.5613 370.712 37.5786 370.712 37.6131C370.712 37.751 370.781 37.9407 370.919 38.1822C371.231 38.5616 371.438 39.0186 371.542 39.5532L371.724 40.1482C371.741 40.2344 371.767 40.3465 371.802 40.4845C371.836 40.6052 371.862 40.7518 371.879 40.9243C371.879 41.0622 371.888 41.183 371.905 41.2864C371.923 41.3899 371.94 41.4761 371.957 41.5451C372.078 41.9935 372.234 42.3729 372.424 42.6833C372.528 42.8386 372.58 42.9162 372.58 42.9162C372.649 43.0886 372.736 43.2352 372.839 43.3559C372.96 43.4594 373.03 43.5198 373.047 43.537C373.306 43.744 373.427 43.8388 373.41 43.8216L373.747 44.0803C374.076 44.3562 374.24 44.7615 374.24 45.2961C374.24 45.3823 374.223 45.4772 374.189 45.5807L374.033 45.9946C373.964 46.2015 373.817 46.3567 373.592 46.4602C373.211 46.6327 372.883 46.7189 372.606 46.7189C372.243 46.7189 371.888 46.5895 371.542 46.3309C371.213 46.0722 370.928 45.7531 370.686 45.3737C370.426 44.9943 370.106 44.3907 369.726 43.5629C369.345 42.6833 369.112 41.8987 369.025 41.2088C368.991 41.0019 368.93 40.8122 368.844 40.6397C368.688 40.2776 368.55 39.8464 368.429 39.3463C368.429 39.2945 368.411 39.2342 368.377 39.1652C368.325 38.9927 368.238 38.8634 368.117 38.7772L367.884 38.5961C367.78 38.5271 367.693 38.5012 367.624 38.5185C367.313 38.5875 366.941 38.6047 366.509 38.5702C366.457 38.5702 366.379 38.5616 366.275 38.5443C366.171 38.5098 366.05 38.4926 365.912 38.4926C365.808 38.4926 365.73 38.5185 365.678 38.5702C365.644 38.6392 365.626 38.7427 365.626 38.8806C365.626 39.2428 365.644 39.8033 365.678 40.5621C365.713 41.7003 365.73 42.5626 365.73 43.149C365.73 43.7698 365.722 44.2269 365.704 44.52C365.687 44.7442 365.652 45.0029 365.6 45.2961C365.549 45.572 365.505 45.7876 365.471 45.9428C365.402 46.2015 365.237 46.4171 364.978 46.5895C364.909 46.6585 364.805 46.693 364.666 46.693L363.966 46.7448L363.81 46.7189ZM366.223 35.9057C366.465 35.9057 366.811 35.8712 367.261 35.8022C367.417 35.7678 367.65 35.7333 367.962 35.6988C368.186 35.6815 368.411 35.6125 368.636 35.4918C368.878 35.3539 369.12 35.2504 369.363 35.1814C369.657 35.0779 369.882 34.871 370.037 34.5605C370.072 34.5088 370.098 34.4571 370.115 34.4053C370.15 34.3364 370.184 34.276 370.219 34.2243C370.409 33.8276 370.504 33.3706 370.504 32.8532C370.504 32.6118 370.496 32.4307 370.478 32.31C370.444 32.172 370.409 32.0685 370.375 31.9995L370.037 31.3787C369.951 31.2752 369.856 31.2062 369.752 31.1717C369.544 31.1545 369.319 31.051 369.077 30.8613C368.87 30.7233 368.697 30.6457 368.558 30.6285L368.299 30.525C368.178 30.456 368.048 30.4215 367.91 30.4215C367.754 30.4215 367.642 30.4129 367.572 30.3957C367.365 30.3612 367.2 30.3439 367.079 30.3439C366.595 30.3439 366.197 30.4302 365.886 30.6026C365.73 30.6888 365.618 30.7923 365.549 30.913C365.531 30.9648 365.514 31.0338 365.497 31.12C365.479 31.189 365.471 31.2407 365.471 31.2752L365.445 32.491L365.471 33.7069C365.505 34.3277 365.523 34.7934 365.523 35.1038C365.523 35.1555 365.523 35.2245 365.523 35.3107C365.54 35.3797 365.566 35.466 365.6 35.5694C365.722 35.7936 365.929 35.9057 366.223 35.9057Z" fill="#F8F8F8"/>
</svg>
