<svg width="20" height="20" viewBox="0 0 20 20" fill="none" xmlns="http://www.w3.org/2000/svg">
<path fill-rule="evenodd" clip-rule="evenodd" d="M9.95862 0C5.58301 0 1.97106 3.47353 1.97106 7.78886V10.9065L0.483788 13.165C-0.755951 14.9841 0.535306 17.2727 2.67482 17.2727H17.3451C18.3897 17.2727 19.2364 16.6504 19.6673 15.8673C20.1011 15.0789 20.1687 14.0196 19.5186 13.1397L17.9462 10.8924V7.78886C17.9462 5.64059 17.0201 3.6131 15.6189 2.25125C15.6103 2.24283 15.6015 2.23457 15.5925 2.22649C14.1174 0.903182 12.1638 0 9.95862 0ZM7.27507 18.1818C6.77309 18.1818 6.36614 18.5888 6.36614 19.0909C6.36614 19.593 6.77309 20 7.27507 20H12.7287C13.2307 20 13.6376 19.593 13.6376 19.0909C13.6376 18.5888 13.2307 18.1818 12.7287 18.1818H7.27507Z" fill="#F8F8F8"/>
</svg>
